<svg preserveAspectRatio="none" width="100%" height="100%" overflow="visible" style="display: block;" viewBox="0 0 40.32 48" fill="none" xmlns="http://www.w3.org/2000/svg">
<g id="dex-screener-seeklogo 1" clip-path="url(#clip0_7730_894)">
<path id="Vector" fill-rule="evenodd" clip-rule="evenodd" d="M24.2908 17.0986C25.7591 16.3664 27.6274 15.2886 29.498 13.812C29.8924 14.631 29.9356 15.3458 29.7324 15.9229C29.5884 16.3296 29.317 16.6834 28.9602 16.9648C28.5738 17.269 28.0913 17.4904 27.5578 17.6101C26.5457 17.8381 25.3639 17.705 24.2908 17.0986ZM24.5453 24.6003L26.489 25.723C22.5204 27.9474 21.4415 32.0776 20.1599 36.1005C18.8785 32.0776 17.7994 27.9474 13.8309 25.723L15.7746 24.6003C15.9627 24.5293 16.1234 24.4005 16.2337 24.2325C16.3441 24.0645 16.3985 23.8659 16.389 23.6651C16.2109 19.8976 17.2282 18.2315 18.6004 17.1854C19.0925 16.8107 19.6298 16.6226 20.1599 16.6226C20.69 16.6226 21.2273 16.8107 21.7196 17.1854C23.0917 18.2315 24.109 19.8976 23.9309 23.6651C23.9215 23.8659 23.9759 24.0645 24.0862 24.2325C24.1966 24.4005 24.3573 24.5293 24.5453 24.6003ZM20.1599 0C22.4066 0.06032 24.6589 0.49648 26.6137 1.34496C27.9673 1.93328 29.2303 2.7104 30.374 3.63968C30.8905 4.0592 31.3157 4.46448 31.7842 4.93104C33.0477 4.97472 34.8943 3.57104 35.7516 2.2576C34.2762 7.0944 27.5437 12.8062 22.8828 14.9918C22.8809 14.991 22.8796 14.9899 22.8781 14.989C22.0417 14.3502 21.1009 14.0309 20.1599 14.0309C19.2189 14.0309 18.2783 14.3502 17.4418 14.989C17.4404 14.9898 17.4391 14.9912 17.4372 14.9918C12.7761 12.8062 6.04375 7.0944 4.56839 2.2576C5.42551 3.57104 7.27207 4.97472 8.53559 4.93104C9.00423 4.46464 9.42951 4.0592 9.94583 3.63968C11.0895 2.7104 12.3525 1.93328 13.7061 1.34496C15.661 0.49648 17.9133 0.06032 20.1599 0ZM16.029 17.0986C14.5609 16.3664 12.6924 15.2886 10.822 13.812C10.4276 14.631 10.3844 15.3458 10.5874 15.9229C10.7316 16.3296 11.0029 16.6834 11.3596 16.9648C11.7461 17.269 12.2287 17.4904 12.7621 17.6101C13.7743 17.8381 14.9559 17.705 16.029 17.0986Z" fill="var(--fill-0, white)"/>
<path id="Vector_2" fill-rule="evenodd" clip-rule="evenodd" d="M31.5466 12.0026C32.5764 10.9634 33.4838 9.81312 34.2134 8.78672L34.5839 9.48416C35.7769 11.8709 36.3967 14.248 36.3967 16.9232L36.3942 21.1683L36.4166 23.369C36.503 28.7715 37.6719 34.2376 40.3199 39.2398L34.7796 34.7723L30.8594 41.1338L26.741 37.2568L20.1599 47.9366L13.5788 37.257L9.46055 41.1339L5.54039 34.7725L-8.78906e-05 39.24C2.64791 34.2378 3.81687 28.7717 3.90343 23.3691L3.92583 21.1685L3.92327 16.9234C3.92327 14.248 4.54295 11.8709 5.73623 9.48432L6.10663 8.78688C6.83623 9.81328 7.74343 10.9634 8.77335 12.0027L8.45175 12.6707C7.82695 13.9682 7.62007 15.4189 8.10679 16.7986C8.42055 17.6872 8.99319 18.4493 9.73143 19.031C10.4482 19.596 11.2966 19.9768 12.1847 20.1768C12.7633 20.307 13.3527 20.3606 13.9383 20.3424C13.8017 21.117 13.742 21.9203 13.7382 22.7389L8.51191 25.7574L12.5449 28.0181C12.8672 28.1988 13.1741 28.4059 13.4623 28.6371C16.7873 31.6224 18.7863 40.4539 20.1601 44.7677C21.534 40.4539 23.5329 31.6224 26.858 28.6371C27.1462 28.4058 27.4531 28.1988 27.7754 28.0181L31.8084 25.7574L26.582 22.7389C26.5782 21.9203 26.5185 21.117 26.3818 20.3424C26.9674 20.3606 27.5569 20.307 28.1354 20.1768C29.0236 19.9768 29.8721 19.596 30.5887 19.031C31.3268 18.4493 31.8996 17.6872 32.2132 16.7986C32.7001 15.4189 32.493 13.9683 31.8684 12.6707L31.5468 12.0027L31.5466 12.0026Z" fill="var(--fill-0, white)"/>
</g>
<defs>
<clipPath id="clip0_7730_894">
<rect width="40.32" height="48" fill="white"/>
</clipPath>
</defs>
</svg>
