<svg preserveAspectRatio="none" width="100%" height="100%" overflow="visible" style="display: block;" viewBox="0 0 48 48" fill="none" xmlns="http://www.w3.org/2000/svg">
<g id="Coinmarketcap--Streamline-Simple-Icons" clip-path="url(#clip0_7730_891)">
<path id="Vector" d="M41.476 28.682C40.638 29.212 39.652 29.278 38.904 28.856C37.952 28.316 37.428 27.06 37.428 25.308V20.072C37.428 17.544 36.428 15.744 34.756 15.258C31.924 14.432 29.792 17.898 28.992 19.202L23.996 27.302V17.402C23.94 15.122 23.2 13.76 21.796 13.348C20.864 13.078 19.474 13.186 18.122 15.254L6.928 33.228C5.42946 30.3831 4.64817 27.2154 4.652 24C4.652 13.172 13.33 4.364 23.996 4.364C34.66 4.364 43.336 13.172 43.336 24C43.344 24.036 43.34 24.068 43.342 24.106C43.442 26.204 42.762 27.872 41.476 28.686V28.682ZM47.636 24.002L47.634 23.892C47.574 10.706 36.994 0 23.994 0C10.96 0 0.354004 10.766 0.354004 24C0.354004 37.232 10.96 48 23.994 48C29.976 48 35.686 45.726 40.068 41.6C40.938 40.78 40.988 39.4 40.182 38.518C39.9919 38.3082 39.7618 38.1385 39.5052 38.0187C39.2486 37.899 38.9707 37.8316 38.6878 37.8206C38.4049 37.8096 38.1226 37.8552 37.8575 37.9547C37.5924 38.0542 37.3498 38.2056 37.144 38.4C33.5924 41.7628 28.8871 43.6366 23.996 43.636C18.284 43.636 13.146 41.11 9.602 37.1L19.698 20.89V28.364C19.698 31.952 21.09 33.112 22.258 33.452C23.426 33.792 25.21 33.56 27.084 30.516C29.08 27.288 31.134 23.922 33.13 20.756V25.308C33.13 28.664 34.474 31.348 36.816 32.668C38.928 33.862 41.584 33.754 43.746 32.388C46.37 30.732 47.782 27.68 47.634 24.002H47.636Z" fill="var(--fill-0, white)"/>
</g>
<defs>
<clipPath id="clip0_7730_891">
<rect width="48" height="48" fill="white"/>
</clipPath>
</defs>
</svg>
