<svg preserveAspectRatio="none" width="100%" height="100%" overflow="visible" style="display: block;" viewBox="0 0 48 48" fill="none" xmlns="http://www.w3.org/2000/svg">
<g id="fi_8215621">
<path id="Vector" d="M34.466 30.656C34.1336 28.397 33.0024 26.332 31.2778 24.8356C29.5532 23.3392 27.3493 22.5106 25.066 22.5H22.938C20.6547 22.5106 18.4509 23.3392 16.7262 24.8356C15.0016 26.332 13.8705 28.397 13.538 30.656L12.518 37.788C12.4854 38.0185 12.507 38.2535 12.5809 38.4743C12.6548 38.6951 12.7791 38.8956 12.944 39.06C13.344 39.46 15.798 41.5 24.004 41.5C32.21 41.5 34.658 39.468 35.064 39.06C35.2289 38.8956 35.3532 38.6951 35.4271 38.4743C35.5011 38.2535 35.5226 38.0185 35.49 37.788L34.466 30.656Z" fill="var(--fill-0, white)"/>
<path id="Vector_2" d="M15.12 23.6C13.1871 25.3819 11.9294 27.7771 11.56 30.38L10.82 35.5C4.87999 35.46 3.08 33.3 2.78 32.86C2.66403 32.7002 2.58128 32.5187 2.53662 32.3263C2.49196 32.134 2.48631 31.9346 2.52 31.74L2.96 29.26C3.18924 27.9639 3.72764 26.7422 4.52954 25.6985C5.33144 24.6547 6.3732 23.8197 7.56649 23.2643C8.75978 22.7089 10.0694 22.4494 11.3843 22.5078C12.6992 22.5663 13.9807 22.9409 15.12 23.6Z" fill="var(--fill-0, white)"/>
<path id="Vector_3" d="M45.48 31.74C45.5137 31.9346 45.508 32.134 45.4634 32.3263C45.4187 32.5187 45.336 32.7002 45.22 32.86C44.92 33.3 43.12 35.46 37.18 35.5L36.44 30.38C36.0706 27.7771 34.8129 25.3819 32.88 23.6C34.0193 22.9409 35.3007 22.5663 36.6157 22.5078C37.9306 22.4494 39.2402 22.7089 40.4335 23.2643C41.6268 23.8197 42.6685 24.6547 43.4705 25.6985C44.2724 26.7422 44.8108 27.9639 45.04 29.26L45.48 31.74Z" fill="var(--fill-0, white)"/>
<path id="Vector_4" d="M15.46 19.2C14.9566 19.914 14.2882 20.4959 13.5118 20.8963C12.7353 21.2968 11.8736 21.5038 11 21.5C10.1285 21.5 9.26951 21.2929 8.49376 20.8958C7.71802 20.4987 7.04774 19.9229 6.53818 19.2159C6.02861 18.5089 5.69434 17.691 5.56291 16.8294C5.43148 15.9679 5.50666 15.0875 5.78225 14.2607C6.05784 13.434 6.52595 12.6845 7.148 12.0742C7.77005 11.4638 8.52824 11.01 9.36009 10.7502C10.1919 10.4903 11.0736 10.4319 11.9325 10.5796C12.7914 10.7274 13.6028 11.0771 14.3 11.6C14.0995 12.3842 13.9987 13.1906 14 14C14.0015 15.8343 14.5066 17.633 15.46 19.2Z" fill="var(--fill-0, white)"/>
<path id="Vector_5" d="M42.5 16C42.5005 16.7224 42.3586 17.4379 42.0824 18.1054C41.8062 18.7729 41.4011 19.3794 40.8903 19.8903C40.3794 20.4011 39.7729 20.8062 39.1054 21.0824C38.4378 21.3586 37.7224 21.5005 37 21.5C36.1264 21.5038 35.2647 21.2968 34.4882 20.8963C33.7118 20.4959 33.0434 19.914 32.54 19.2C33.4935 17.633 33.9985 15.8343 34 14C34.0013 13.1906 33.9005 12.3842 33.7 11.6C34.5171 10.9872 35.4888 10.614 36.5061 10.5222C37.5234 10.4305 38.5461 10.6239 39.4597 11.0807C40.3732 11.5374 41.1416 12.2396 41.6786 13.1085C42.2156 13.9773 42.5 14.9786 42.5 16Z" fill="var(--fill-0, white)"/>
<path id="Vector_6" d="M24 21.5C28.1421 21.5 31.5 18.1421 31.5 14C31.5 9.85786 28.1421 6.49999 24 6.49999C19.8579 6.49999 16.5 9.85786 16.5 14C16.5 18.1421 19.8579 21.5 24 21.5Z" fill="var(--fill-0, white)"/>
</g>
</svg>
