<svg width="222" height="76" viewBox="0 0 222 76" fill="none" xmlns="http://www.w3.org/2000/svg">
<path d="M119.14 12.4004L129.34 31.5996L179.14 66.7002L169.84 73L148.774 58.8662L136.906 69.7002L125.974 61.5996L114.373 72.9668V73L114.357 72.9834L114.34 73V72.9668L102.74 61.5996L91.8069 69.7002L79.9397 58.8662L58.8733 73L49.5735 66.7002L99.3733 31.5996L109.573 12.4004L112.873 1H115.84L119.14 12.4004ZM197.174 5.5C206.452 5.50021 213.974 13.0216 213.974 22.2998V39.0996C213.974 41.5596 212.835 43.8817 210.89 45.3877L204.674 50.2002L213.073 65.7998L219.373 72.0996L195.373 71.7998L182.774 51.0996H165.373V53.5L144.974 39.0996V17.7998L141.974 5.5H197.174ZM28.8733 39.7002L37.5735 5.5H54.9739L64.5735 39.0996L71.7737 5.5H91.2737L84.0735 39.0996L51.9739 61.5996L45.9739 39.7002L37.5735 71.7998H17.4739L1.27368 5.5H21.6741L28.8733 39.7002ZM114.373 13C114.365 13.0205 112.873 16.9202 112.873 24.4004C112.873 33.1996 114.371 46.8785 114.373 46.9004L114.608 44.623C115.03 40.3591 115.873 31.0052 115.873 24.4004C115.873 16.9004 114.373 13 114.373 13ZM165.373 34.9033H189.073C191.724 34.9033 193.873 32.7544 193.873 30.1035V26.5029C193.873 23.8522 191.724 21.7031 189.073 21.7031H165.373V34.9033Z" fill="white"/>
<path d="M119.14 12.4004L118.179 12.6784L118.208 12.778L118.257 12.8696L119.14 12.4004ZM129.34 31.5996L128.457 32.0688L128.569 32.2795L128.764 32.417L129.34 31.5996ZM179.14 66.7002L179.701 67.5281L180.899 66.7165L179.716 65.8828L179.14 66.7002ZM169.84 73L169.283 73.8304L169.843 74.206L170.401 73.8279L169.84 73ZM148.774 58.8662L149.331 58.0358L148.679 57.5985L148.099 58.1277L148.774 58.8662ZM136.906 69.7002L136.311 70.5037L136.973 70.9938L137.581 70.4387L136.906 69.7002ZM125.974 61.5996L126.569 60.7961L125.884 60.2881L125.274 60.8854L125.974 61.5996ZM114.373 72.9668L113.673 72.2525L113.373 72.5466V72.9668H114.373ZM114.373 73L113.666 73.7071L115.373 75.4142V73H114.373ZM114.357 72.9834L115.064 72.2763L114.357 71.5692L113.65 72.2763L114.357 72.9834ZM114.34 73H113.34V75.4142L115.047 73.7071L114.34 73ZM114.34 72.9668H115.34V72.5466L115.04 72.2526L114.34 72.9668ZM102.74 61.5996L103.44 60.8854L102.831 60.2881L102.145 60.7961L102.74 61.5996ZM91.8069 69.7002L91.1327 70.4387L91.7407 70.9938L92.4022 70.5037L91.8069 69.7002ZM79.9397 58.8662L80.6139 58.1277L80.0343 57.5985L79.3826 58.0358L79.9397 58.8662ZM58.8733 73L58.3124 73.8279L58.8706 74.206L59.4304 73.8304L58.8733 73ZM49.5735 66.7002L48.9974 65.8828L47.8146 66.7165L49.0126 67.5281L49.5735 66.7002ZM99.3733 31.5996L99.9494 32.417L100.144 32.2795L100.256 32.0688L99.3733 31.5996ZM109.573 12.4004L110.457 12.8696L110.505 12.778L110.534 12.6784L109.573 12.4004ZM112.873 1V0H112.122L111.913 0.721966L112.873 1ZM115.84 1L116.801 0.721966L116.592 0H115.84V1ZM197.174 5.5L197.174 4.5H197.174V5.5ZM213.974 22.2998H214.974V22.2998L213.974 22.2998ZM210.89 45.3877L210.278 44.597L210.278 44.597L210.89 45.3877ZM204.674 50.2002L204.062 49.4095L203.392 49.9282L203.794 50.6743L204.674 50.2002ZM213.073 65.7998L212.193 66.2739L212.263 66.4031L212.366 66.5069L213.073 65.7998ZM219.373 72.0996L219.361 73.0995L221.818 73.1302L220.08 71.3925L219.373 72.0996ZM195.373 71.7998L194.519 72.3197L194.807 72.7928L195.361 72.7997L195.373 71.7998ZM182.774 51.0996L183.628 50.5797L183.336 50.0996H182.774V51.0996ZM165.373 51.0996V50.0996H164.373V51.0996H165.373ZM165.373 53.5L164.797 54.317L166.373 55.43V53.5H165.373ZM144.974 39.0996H143.974V39.6177L144.397 39.9166L144.974 39.0996ZM144.974 17.7998H145.974V17.6796L145.945 17.5628L144.974 17.7998ZM141.974 5.5V4.5H140.701L141.002 5.73696L141.974 5.5ZM28.8733 39.7002L27.8947 39.9062L29.8424 39.9467L28.8733 39.7002ZM37.5735 5.5V4.5H36.796L36.6044 5.25346L37.5735 5.5ZM54.9739 5.5L55.9354 5.22529L55.7282 4.5H54.9739V5.5ZM64.5735 39.0996L63.612 39.3743L65.5513 39.3091L64.5735 39.0996ZM71.7737 5.5V4.5H70.9653L70.7959 5.29046L71.7737 5.5ZM91.2737 5.5L92.2515 5.70954L92.5107 4.5H91.2737V5.5ZM84.0735 39.0996L84.6475 39.9185L84.969 39.6931L85.0513 39.3091L84.0735 39.0996ZM51.9739 61.5996L51.0094 61.8638L51.3847 63.2338L52.5479 62.4185L51.9739 61.5996ZM45.9739 39.7002L46.9383 39.436L45.9517 35.8349L45.0065 39.447L45.9739 39.7002ZM37.5735 71.7998V72.7998H38.3455L38.5409 72.053L37.5735 71.7998ZM17.4739 71.7998L16.5025 72.0372L16.6888 72.7998H17.4739V71.7998ZM1.27368 5.5V4.5H-8.60691e-05L0.302261 5.73736L1.27368 5.5ZM21.6741 5.5L22.6526 5.29401L22.4855 4.5H21.6741V5.5ZM114.373 13L115.307 12.6411L114.372 10.211L113.44 12.6418L114.373 13ZM112.873 24.4004H111.873V24.4004L112.873 24.4004ZM114.373 46.9004L113.379 47.0092L115.368 47.0028L114.373 46.9004ZM114.608 44.623L115.602 44.7254L115.603 44.7215L114.608 44.623ZM115.873 24.4004L116.873 24.4004V24.4004H115.873ZM165.373 34.9033H164.373V35.9033H165.373V34.9033ZM193.873 30.1035L194.873 30.1035V30.1035H193.873ZM193.873 26.5029H194.873V26.5028L193.873 26.5029ZM165.373 21.7031V20.7031H164.373V21.7031H165.373ZM119.14 12.4004L118.257 12.8696L128.457 32.0688L129.34 31.5996L130.223 31.1304L120.023 11.9312L119.14 12.4004ZM129.34 31.5996L128.764 32.417L178.564 67.5176L179.14 66.7002L179.716 65.8828L129.916 30.7822L129.34 31.5996ZM179.14 66.7002L178.579 65.8723L169.279 72.1721L169.84 73L170.401 73.8279L179.701 67.5281L179.14 66.7002ZM169.84 73L170.397 72.1696L149.331 58.0358L148.774 58.8662L148.217 59.6966L169.283 73.8304L169.84 73ZM148.774 58.8662L148.099 58.1277L136.232 68.9617L136.906 69.7002L137.581 70.4387L149.448 59.6047L148.774 58.8662ZM136.906 69.7002L137.502 68.8967L126.569 60.7961L125.974 61.5996L125.379 62.4031L136.311 70.5037L136.906 69.7002ZM125.974 61.5996L125.274 60.8854L113.673 72.2525L114.373 72.9668L115.073 73.6811L126.674 62.3139L125.974 61.5996ZM114.373 72.9668H113.373V73H114.373H115.373V72.9668H114.373ZM114.373 73L115.08 72.2929L115.064 72.2763L114.357 72.9834L113.65 73.6905L113.666 73.7071L114.373 73ZM114.357 72.9834L113.65 72.2763L113.633 72.2929L114.34 73L115.047 73.7071L115.064 73.6905L114.357 72.9834ZM114.34 73H115.34V72.9668H114.34H113.34V73H114.34ZM114.34 72.9668L115.04 72.2526L103.44 60.8854L102.74 61.5996L102.041 62.3138L113.64 73.681L114.34 72.9668ZM102.74 61.5996L102.145 60.7961L91.2116 68.8967L91.8069 69.7002L92.4022 70.5037L103.336 62.4031L102.74 61.5996ZM91.8069 69.7002L92.4811 68.9617L80.6139 58.1277L79.9397 58.8662L79.2655 59.6047L91.1327 70.4387L91.8069 69.7002ZM79.9397 58.8662L79.3826 58.0358L58.3162 72.1696L58.8733 73L59.4304 73.8304L80.4968 59.6966L79.9397 58.8662ZM58.8733 73L59.4341 72.1721L50.1343 65.8723L49.5735 66.7002L49.0126 67.5281L58.3124 73.8279L58.8733 73ZM49.5735 66.7002L50.1496 67.5176L99.9494 32.417L99.3733 31.5996L98.7972 30.7822L48.9974 65.8828L49.5735 66.7002ZM99.3733 31.5996L100.256 32.0688L110.457 12.8696L109.573 12.4004L108.69 11.9312L98.4902 31.1304L99.3733 31.5996ZM109.573 12.4004L110.534 12.6784L113.834 1.27803L112.873 1L111.913 0.721966L108.613 12.1224L109.573 12.4004ZM112.873 1V2H115.84V1V0H112.873V1ZM115.84 1L114.88 1.27803L118.179 12.6784L119.14 12.4004L120.1 12.1224L116.801 0.721966L115.84 1ZM197.174 5.5L197.174 6.5C205.9 6.5002 212.974 13.5739 212.974 22.2998L213.974 22.2998L214.974 22.2998C214.974 12.4693 207.004 4.50023 197.174 4.5L197.174 5.5ZM213.974 22.2998H212.974V39.0996H213.974H214.974V22.2998H213.974ZM213.974 39.0996H212.974C212.974 41.2503 211.978 43.2804 210.278 44.597L210.89 45.3877L211.502 46.1784C213.692 44.483 214.974 41.869 214.974 39.0996H213.974ZM210.89 45.3877L210.278 44.597L204.062 49.4095L204.674 50.2002L205.286 50.9909L211.502 46.1784L210.89 45.3877ZM204.674 50.2002L203.794 50.6743L212.193 66.2739L213.073 65.7998L213.954 65.3257L205.555 49.7261L204.674 50.2002ZM213.073 65.7998L212.366 66.5069L218.666 72.8067L219.373 72.0996L220.08 71.3925L213.781 65.0927L213.073 65.7998ZM219.373 72.0996L219.386 71.0997L195.386 70.7999L195.373 71.7998L195.361 72.7997L219.361 73.0995L219.373 72.0996ZM195.373 71.7998L196.227 71.2799L183.628 50.5797L182.774 51.0996L181.919 51.6195L194.519 72.3197L195.373 71.7998ZM182.774 51.0996V50.0996H165.373V51.0996V52.0996H182.774V51.0996ZM165.373 51.0996H164.373V53.5H165.373H166.373V51.0996H165.373ZM165.373 53.5L165.95 52.683L145.551 38.2827L144.974 39.0996L144.397 39.9166L164.797 54.317L165.373 53.5ZM144.974 39.0996H145.974V17.7998H144.974H143.974V39.0996H144.974ZM144.974 17.7998L145.945 17.5628L142.945 5.26304L141.974 5.5L141.002 5.73696L144.002 18.0368L144.974 17.7998ZM141.974 5.5V6.5H197.174V5.5V4.5H141.974V5.5ZM28.8733 39.7002L29.8424 39.9467L38.5426 5.74654L37.5735 5.5L36.6044 5.25346L27.9042 39.4537L28.8733 39.7002ZM37.5735 5.5V6.5H54.9739V5.5V4.5H37.5735V5.5ZM54.9739 5.5L54.0124 5.77471L63.612 39.3743L64.5735 39.0996L65.535 38.8249L55.9354 5.22529L54.9739 5.5ZM64.5735 39.0996L65.5513 39.3091L72.7515 5.70954L71.7737 5.5L70.7959 5.29046L63.5957 38.8901L64.5735 39.0996ZM71.7737 5.5V6.5H91.2737V5.5V4.5H71.7737V5.5ZM91.2737 5.5L90.2959 5.29046L83.0957 38.8901L84.0735 39.0996L85.0513 39.3091L92.2515 5.70954L91.2737 5.5ZM84.0735 39.0996L83.4995 38.2807L51.3999 60.7807L51.9739 61.5996L52.5479 62.4185L84.6475 39.9185L84.0735 39.0996ZM51.9739 61.5996L52.9383 61.3354L46.9383 39.436L45.9739 39.7002L45.0094 39.9644L51.0094 61.8638L51.9739 61.5996ZM45.9739 39.7002L45.0065 39.447L36.6061 71.5466L37.5735 71.7998L38.5409 72.053L46.9413 39.9534L45.9739 39.7002ZM37.5735 71.7998V70.7998H17.4739V71.7998V72.7998H37.5735V71.7998ZM17.4739 71.7998L18.4453 71.5624L2.2451 5.26264L1.27368 5.5L0.302261 5.73736L16.5025 72.0372L17.4739 71.7998ZM1.27368 5.5V6.5H21.6741V5.5V4.5H1.27368V5.5ZM21.6741 5.5L20.6955 5.70599L27.8947 39.9062L28.8733 39.7002L29.8518 39.4942L22.6526 5.29401L21.6741 5.5ZM114.373 13L113.44 12.6418C113.393 12.7637 111.873 16.7846 111.873 24.4004H112.873H113.873C113.873 17.0558 115.338 13.2774 115.307 13.3582L114.373 13ZM112.873 24.4004L111.873 24.4004C111.873 33.2639 113.378 46.9981 113.379 47.0092L114.373 46.9004L115.367 46.7915C115.364 46.7588 113.873 33.1354 113.873 24.4004L112.873 24.4004ZM114.373 46.9004L115.368 47.0028L115.602 44.7254L114.608 44.623L113.613 44.5207L113.379 46.798L114.373 46.9004ZM114.608 44.623L115.603 44.7215C116.024 40.4604 116.873 31.0609 116.873 24.4004L115.873 24.4004L114.873 24.4004C114.873 30.9496 114.035 40.2579 113.613 44.5246L114.608 44.623ZM115.873 24.4004H116.873C116.873 20.5833 116.492 17.6688 116.105 15.6953C115.911 14.7087 115.717 13.9577 115.568 13.447C115.493 13.1917 115.431 12.9965 115.385 12.8619C115.362 12.7947 115.344 12.7426 115.331 12.7057C115.324 12.6873 115.319 12.6727 115.315 12.6619C115.313 12.6565 115.311 12.6521 115.31 12.6486C115.309 12.6469 115.308 12.6454 115.308 12.6441C115.308 12.6435 115.307 12.6429 115.307 12.6424C115.307 12.6422 115.307 12.6418 115.307 12.6417C115.307 12.6414 115.307 12.6411 114.373 13C113.44 13.3589 113.44 13.3587 113.44 13.3584C113.44 13.3583 113.44 13.3581 113.44 13.358C113.439 13.3577 113.439 13.3575 113.439 13.3573C113.439 13.357 113.439 13.3569 113.439 13.3571C113.439 13.3574 113.44 13.3587 113.441 13.3609C113.442 13.3653 113.445 13.3735 113.45 13.3855C113.458 13.4095 113.472 13.4485 113.49 13.5026C113.527 13.6106 113.581 13.7787 113.648 14.0062C113.78 14.4613 113.96 15.1541 114.142 16.0801C114.505 17.9318 114.873 20.7175 114.873 24.4004H115.873ZM165.373 34.9033V35.9033H189.073V34.9033V33.9033H165.373V34.9033ZM189.073 34.9033V35.9033C192.277 35.9033 194.873 33.3067 194.873 30.1035L193.873 30.1035L192.873 30.1035C192.873 32.2022 191.172 33.9033 189.073 33.9033V34.9033ZM193.873 30.1035H194.873V26.5029H193.873H192.873V30.1035H193.873ZM193.873 26.5029L194.873 26.5028C194.873 23.2999 192.277 20.7031 189.073 20.7031V21.7031V22.7031C191.172 22.7031 192.873 24.4044 192.873 26.503L193.873 26.5029ZM189.073 21.7031V20.7031H165.373V21.7031V22.7031H189.073V21.7031ZM165.373 21.7031H164.373V34.9033H165.373H166.373V21.7031H165.373Z" fill="#2C3A67"/>
</svg>
